<svg width="24" height="24" viewBox="0 0 24 24" fill="none" xmlns="http://www.w3.org/2000/svg">
<path d="M8.55718 7.99424H5.04541V10.6865H8.33943C8.90867 10.6865 9.41053 10.5045 9.41053 9.24948C9.41053 7.99424 8.55718 7.99424 8.55718 7.99424Z" fill="#0D0D0D"/>
<path d="M5.04541 15.7701H8.37978C8.87909 15.7594 9.82906 15.614 9.82906 14.2029C9.82906 12.5293 8.55718 12.546 8.55718 12.546H5.04541V15.7701Z" fill="#0D0D0D"/>
<path d="M17.548 10.6865C15.6842 10.6865 15.4249 12.546 15.4249 12.546H19.3881C19.3881 12.546 19.4114 10.6865 17.548 10.6865Z" fill="#0D0D0D"/>
<path fill-rule="evenodd" clip-rule="evenodd" d="M1.2 0C0.537258 0 0 0.537259 0 1.2V22.8C0 23.4627 0.537259 24 1.2 24H22.8C23.4627 24 24 23.4627 24 22.8V1.2C24 0.537258 23.4627 0 22.8 0H1.2ZM11.9711 9.06249C11.9711 11.2213 10.1302 11.3579 10.1302 11.3579C12.5567 11.3579 12.3896 14.3535 12.3896 14.3535C12.3896 18.0354 8.55718 17.9143 8.55718 17.9143H2.2793V5.84998H8.55718C10.465 5.84998 11.9711 6.90357 11.9711 9.06249ZM12.8654 13.5549C12.8654 13.5549 12.8612 8.91946 17.5008 8.91946C22.3838 8.91946 21.6997 14.1565 21.6997 14.1565H15.4483C15.4483 16.3977 17.5716 16.2554 17.5716 16.2554C19.5767 16.2554 19.5059 14.9585 19.5059 14.9585H21.6289C21.6289 18.4024 17.5008 18.1666 17.5008 18.1666C12.547 18.1666 12.8654 13.5549 12.8654 13.5549ZM14.9052 8.04632H19.8826V6.56068H14.9052V8.04632Z" fill="#0D0D0D"/>
</svg>
