<svg width="24" height="24" viewBox="0 0 24 24" fill="none" xmlns="http://www.w3.org/2000/svg">
<path d="M7.19158 1.00894C9.05229 0.193731 11.0898 -0.13594 13.1129 0.0508535C15.1361 0.237647 17.0786 0.934783 18.7582 2.07687C17.3694 3.95845 15.6208 5.54617 13.6137 6.74813C11.9269 4.38169 9.73291 2.421 7.19158 1.00894ZM11.9633 7.61926C10.2225 5.24549 7.91521 3.34419 5.25139 2.08831C2.9245 3.67421 1.22693 6.02406 0.453353 8.72995C1.81733 9.0629 3.2164 9.23097 4.6205 9.23053C7.15624 9.23296 9.66202 8.68311 11.9633 7.61926ZM24.0004 11.2721C23.8143 8.20397 22.4542 5.32489 20.2018 3.23105C18.686 5.26769 16.7875 6.9898 14.6124 8.30114C15.2457 9.39705 15.7696 10.5525 16.1765 11.7508C18.7248 11.0616 21.387 10.8987 24.0004 11.2721ZM16.6861 13.5257C17.0282 14.9805 17.2007 16.47 17.1999 17.9645C17.1988 19.7104 16.9624 21.4483 16.4973 23.1312C18.5386 22.3065 20.3144 20.9383 21.6316 19.1754C22.9488 17.4126 23.7568 15.3226 23.9678 13.1329C21.5397 12.7545 19.0592 12.8883 16.6861 13.5257ZM14.4177 12.3194C14.0454 11.2284 13.566 10.1769 12.9865 9.18028C10.3757 10.4319 7.51631 11.0801 4.6205 11.0767C3.09414 11.0772 1.57306 10.8976 0.0888806 10.5416C-0.152787 12.5142 0.100232 14.5158 0.825171 16.3665C1.55011 18.2171 2.72423 19.8587 4.24187 21.1434C6.47754 17.0884 10.0846 13.9604 14.4177 12.3194ZM5.75048 22.2369C8.32679 23.8118 11.4027 24.3586 14.3647 23.7681C15.0173 21.9026 15.3511 19.9407 15.352 17.9645C15.352 16.6655 15.2074 15.3705 14.9209 14.1034C10.9897 15.6331 7.73657 18.5184 5.75048 22.2369Z" fill="#0D0D0D"/>
</svg>
