<svg width="24" height="24" viewBox="0 0 24 24" fill="none" xmlns="http://www.w3.org/2000/svg">
<path d="M20.5557 1.00183C21.9055 1.00183 23 2.09638 23 3.44617V20.5536C23 21.9034 21.9055 22.9979 20.5557 22.9979H3.44824C2.09845 22.9979 1.00391 21.9034 1.00391 20.5536V3.44617C1.00391 2.09638 2.09845 1.00183 3.44824 1.00183H20.5557ZM4.37305 19.9432H7.65332V9.35242H4.37305V19.9432ZM16.0889 9.0282C13.8416 9.02834 12.8955 10.7792 12.8955 10.7792V9.35242H9.75V19.9432H12.8955V14.3837C12.8955 12.894 13.5821 12.0077 14.8945 12.0077C16.1007 12.0079 16.6797 12.8596 16.6797 14.3837V19.9432H19.9434V13.2372C19.9432 10.4003 18.3352 9.0282 16.0889 9.0282ZM5.99707 4.05652C4.92577 4.05673 4.05762 4.9325 4.05762 6.0116C4.05784 7.0905 4.92591 7.96549 5.99707 7.9657C7.06841 7.9657 7.9363 7.09063 7.93652 6.0116C7.93652 4.93237 7.06855 4.05652 5.99707 4.05652Z" fill="#0D0D0D"/>
</svg>
