<svg width="52" height="31" viewBox="0 0 52 31" fill="none" xmlns="http://www.w3.org/2000/svg">
<path d="M51.2457 22.2119C50.581 22.5596 49.8533 22.779 49.2201 23.1907C43.73 26.9177 37.5515 27.5394 31.1954 26.8265C29.0069 26.5818 26.713 25.7169 24.7931 24.5605C19.2723 21.3346 14.731 17.0246 11.3951 11.6046C10.4306 10.0444 9.75872 8.26977 9.34603 6.37496C9.80886 6.75075 10.3198 7.14357 10.766 7.56645C12.073 8.77096 13.3634 10.0226 14.7519 11.1499C15.3425 11.6239 16.1608 11.9136 16.9477 12.1391C17.2365 12.2413 17.8198 11.9708 17.9679 11.7053C18.1161 11.4398 18.0106 10.8195 17.7866 10.6872C14.1283 8.01462 11.3995 4.39919 8.40969 1.06229C7.36001 -0.104117 6.475 -0.205392 5.44732 0.861652C2.93457 3.52275 1.12535 6.64483 0.00485541 10.1167C-0.0284808 10.2108 0.114064 10.4203 0.302879 10.8051C3.50967 10.7743 3.70996 7.45365 5.95602 5.54603C6.09296 6.23041 6.16697 6.78652 6.32244 7.26549C9.80418 16.7116 16.4763 23.4185 25.3149 28.1366C26.6275 28.8662 28.2013 29.3172 29.7287 29.5929C35.3405 30.5723 40.8247 30.0758 46.0073 27.8297C47.6755 27.0954 49.1402 25.865 50.5715 24.7289C51.1566 24.3001 51.44 23.4995 51.8177 22.8913C51.6271 22.6649 51.4364 22.4384 51.2457 22.2119Z" fill="#303030"/>
</svg>
