<svg width="24" height="24" viewBox="0 0 24 24" fill="none" xmlns="http://www.w3.org/2000/svg">
<g clip-path="url(#clip0_897_2124)">
<path d="M21.0251 4.17512C21.4134 4.32187 21.7694 4.5437 22.072 4.82787C22.3746 5.11202 22.6186 5.45292 22.7895 5.83121C22.9603 6.20954 23.0546 6.61824 23.0677 7.03315C23.0808 7.44822 23.0118 7.86246 22.8651 8.25094L17.7907 21.6995C17.6442 22.0879 17.4228 22.444 17.1389 22.7468C16.8549 23.0496 16.5138 23.2931 16.1355 23.4642C15.7572 23.6353 15.3489 23.7313 14.9338 23.7446C14.5187 23.7579 14.1046 23.6885 13.716 23.542L2.95927 19.4831C2.17472 19.187 1.5394 18.5908 1.19398 17.8266C0.848756 17.0627 0.820951 16.1928 1.11677 15.4084L6.1902 1.95951C6.33669 1.57104 6.55808 1.21508 6.84204 0.912213C7.12611 0.609293 7.46736 0.365021 7.84573 0.193873C8.22412 0.0227239 8.63293 -0.0719777 9.04801 -0.0852864C9.46299 -0.0985534 9.87675 -0.0304304 10.2652 0.116093L21.0251 4.17512ZM7.45408 11.6546C7.24022 11.5741 7.00287 11.582 6.79465 11.6762C6.58647 11.7703 6.4237 11.9433 6.34291 12.157C6.26254 12.3708 6.27038 12.6084 6.36448 12.8165C6.45869 13.0245 6.6321 13.1865 6.84571 13.2673L12.2253 15.2977C12.3311 15.3375 12.4442 15.3566 12.5572 15.353C12.6704 15.3493 12.7824 15.3232 12.8856 15.2765C12.9886 15.2299 13.0814 15.1634 13.1587 15.081C13.2362 14.9984 13.2977 14.9006 13.3377 14.7947C13.3776 14.6889 13.3957 14.5755 13.3921 14.4624C13.3884 14.3496 13.3626 14.2382 13.3161 14.1353C13.2695 14.0322 13.2026 13.9383 13.1201 13.8609C13.0376 13.7836 12.9401 13.7232 12.8343 13.6832L7.45408 11.6546ZM8.77319 8.15782C8.55922 8.07733 8.32201 8.08508 8.11376 8.17939C7.90556 8.27373 7.74264 8.44638 7.66203 8.66027C7.62207 8.76607 7.60357 8.87824 7.60709 8.99128C7.61069 9.10429 7.63618 9.21629 7.68268 9.31935C7.7293 9.42243 7.79625 9.51628 7.87874 9.59371C7.96122 9.67102 8.05871 9.7315 8.16448 9.77143L16.2307 12.8143C16.3365 12.8542 16.4496 12.8732 16.5626 12.8696C16.6758 12.8659 16.7879 12.8398 16.891 12.7931C16.9941 12.7464 17.0877 12.6805 17.1651 12.598C17.2425 12.5153 17.3032 12.4172 17.3431 12.3113C17.3829 12.2055 17.4011 12.092 17.3975 11.979C17.3938 11.8662 17.368 11.7548 17.3216 11.6519C17.2749 11.5488 17.208 11.455 17.1255 11.3775C17.043 11.3002 16.9456 11.2398 16.8398 11.1998L8.77319 8.15782ZM10.0932 4.6614C9.98741 4.6214 9.87435 4.60263 9.76129 4.60611C9.64813 4.60966 9.53641 4.63513 9.43322 4.6817C9.32998 4.72833 9.2364 4.79516 9.15886 4.87776C9.08151 4.96027 9.02109 5.05769 8.98114 5.1635C8.94123 5.2693 8.92231 5.3824 8.92586 5.49543C8.92948 5.60827 8.95539 5.71966 9.00179 5.82258C9.04841 5.92566 9.11536 6.01951 9.19785 6.09694C9.28035 6.17428 9.37779 6.23472 9.48359 6.27466L17.5498 9.31755C17.7637 9.39806 18.001 9.39013 18.2092 9.29598C18.4174 9.2018 18.5802 9.0288 18.661 8.8151C18.7416 8.60122 18.7339 8.36306 18.6398 8.15476C18.5456 7.94665 18.3722 7.7847 18.1585 7.70394L10.0932 4.6614Z" fill="#0D0D0D"/>
</g>
<defs>
<clipPath id="clip0_897_2124">
<rect width="24" height="24" fill="white"/>
</clipPath>
</defs>
</svg>
