<svg width="24" height="24" viewBox="0 0 24 24" fill="none" xmlns="http://www.w3.org/2000/svg">
<path d="M11.6438 1.59C11.7532 1.53101 11.8755 1.50012 11.9998 1.50012C12.124 1.50012 12.2464 1.53101 12.3558 1.59L22.1058 6.84C22.2248 6.90426 22.3243 6.99954 22.3936 7.11573C22.4629 7.23192 22.4995 7.3647 22.4995 7.5C22.4995 7.6353 22.4629 7.76808 22.3936 7.88427C22.3243 8.00046 22.2248 8.09573 22.1058 8.16L12.3558 13.41C12.2464 13.469 12.124 13.4999 11.9998 13.4999C11.8755 13.4999 11.7532 13.469 11.6438 13.41L1.89377 8.16C1.77471 8.09573 1.67524 8.00046 1.60592 7.88427C1.5366 7.76808 1.5 7.6353 1.5 7.5C1.5 7.3647 1.5366 7.23192 1.60592 7.11573C1.67524 6.99954 1.77471 6.90426 1.89377 6.84L11.6438 1.59Z" fill="#0D0D0D"/>
<path d="M3.26475 10.602L10.9327 14.731C11.2607 14.9076 11.6273 15 11.9997 15C12.3722 15 12.7388 14.9076 13.0667 14.731L20.7347 10.601L22.1047 11.34C22.2238 11.4042 22.3233 11.4995 22.3926 11.6157C22.4619 11.7319 22.4985 11.8647 22.4985 12C22.4985 12.1353 22.4619 12.268 22.3926 12.3842C22.3233 12.5004 22.2238 12.5957 22.1047 12.66L12.3547 17.91C12.2456 17.9686 12.1236 17.9993 11.9997 17.9993C11.8759 17.9993 11.7539 17.9686 11.6447 17.91L1.89475 12.66C1.77568 12.5957 1.67622 12.5004 1.6069 12.3842C1.53758 12.268 1.50098 12.1353 1.50098 12C1.50098 11.8647 1.53758 11.7319 1.6069 11.6157C1.67622 11.4995 1.77568 11.4042 1.89475 11.34L3.26475 10.602Z" fill="#0D0D0D"/>
<path d="M10.9327 19.231L3.26475 15.101L1.89475 15.84C1.77568 15.9042 1.67622 15.9995 1.6069 16.1157C1.53758 16.2319 1.50098 16.3647 1.50098 16.5C1.50098 16.6353 1.53758 16.768 1.6069 16.8842C1.67622 17.0004 1.77568 17.0957 1.89475 17.16L11.6447 22.41C11.8657 22.53 12.1337 22.53 12.3547 22.41L22.1047 17.16C22.2238 17.0957 22.3233 17.0004 22.3926 16.8842C22.4619 16.768 22.4985 16.6353 22.4985 16.5C22.4985 16.3647 22.4619 16.2319 22.3926 16.1157C22.3233 15.9995 22.2238 15.9042 22.1047 15.84L20.7347 15.102L13.0667 19.232C12.7388 19.4084 12.3721 19.5007 11.9996 19.5005C11.6272 19.5004 11.2606 19.4077 10.9327 19.231Z" fill="#0D0D0D"/>
</svg>
