<svg width="140" height="242" viewBox="0 0 140 242" fill="none" xmlns="http://www.w3.org/2000/svg">
<path d="M18.2903 29.6496C19.2541 28.9004 19.468 28.4719 19.8965 28.258C51.2889 20.4646 81.2989 23.9223 108.857 41.4166C115.827 45.817 121.513 51.9309 125.806 59.2223C135.145 74.7703 133.341 93.7371 121.351 107.229C115.142 114.296 107.967 119.969 98.5385 122.103C94.9995 119.421 91.5675 116.631 88.0289 114.377C82.2384 110.728 75.9143 109.329 69.1647 111.359C64.1292 112.747 60.9172 115.959 60.9205 119.388C60.9247 123.889 63.9283 126.893 67.7873 127.968C73.147 129.474 78.7205 130.336 84.1865 130.877C87.7233 131.202 91.4736 130.67 95.0098 130.352C105.311 144.293 99.0039 160.898 80.258 169.561C78.1134 168.273 75.8616 166.877 73.61 165.697C65.1398 161.509 56.3514 160.643 47.6748 164.815C44.3542 166.419 41.3557 168.774 41.4671 173.168C41.5774 176.49 44.5809 179.494 49.2974 180.784C56.8009 182.72 64.3018 181.87 71.6948 180.269C74.2662 179.629 76.8376 178.988 79.3017 178.24C95.9323 199.154 92.4244 229.264 68.4275 238.243C69.9291 239.531 71.002 240.818 72.0738 241.033C73.36 241.249 74.9668 240.5 76.145 239.751C86.9618 232.367 94.3473 222.836 94.6559 209.226C94.9677 199.046 92.4939 189.505 87.9841 180.285C87.3399 178.998 86.6957 177.712 86.1586 176.318C86.0513 176.211 86.1581 175.889 86.2646 175.139C87.3354 174.283 88.5132 173.105 89.9054 172.142C106.505 160.048 110.138 148.692 103.367 128.645C105.081 127.789 107.009 126.719 108.937 125.864C119.97 120.409 128.429 112.379 133.991 101.239C143.083 83.1368 140.17 62.6652 126.331 46.8986C118.821 38.3182 109.706 31.9867 99.3061 27.3687C74.1115 16.3067 48.2817 13.603 21.6048 21.6153C20.212 21.9355 18.8193 22.47 17.4265 22.7902C17.2121 22.79 16.8905 22.6825 15.9257 22.3601C18.7078 17.8617 22.4557 14.7574 26.0963 11.5459C29.5226 8.3341 33.2705 5.22983 37.1252 1.80414C34.0151 -0.663635 31.4435 -0.237407 28.9798 0.939092C26.1949 2.43679 23.1954 3.71995 20.9468 5.75398C14.9508 11.321 8.95492 17.1023 3.38813 23.3127C-0.893867 28.2383 0.28852 31.9902 6.07715 33.7104C18.4047 37.2586 30.8393 40.6997 43.2739 44.1408C45.3105 44.6786 47.3468 44.7876 50.0263 45.1117C49.7006 40.7175 47.1278 39.8578 44.7693 38.9982C35.979 36.2036 27.5099 33.0877 18.2903 29.6496ZM47.8971 173.174C56.25 166.752 65.5736 166.868 72.5454 173.197C64.4024 174.904 56.7952 176.719 47.8971 173.174ZM67.4585 120.359C75.2772 115.544 82.5657 116.837 88.4667 124.023C80.9656 124.659 74.2144 124.974 67.4585 120.359Z" fill="#0D0D0D"/>
</svg>
